<svg width="133" height="32" viewBox="0 0 133 32" fill="none" xmlns="http://www.w3.org/2000/svg">
<path d="M24.0201 1.55556H4.44816C1.99151 1.55556 0 3.5454 0 6V25.5556C0 28.0102 1.99151 30 4.44816 30H24.0201C26.4767 30 28.4682 28.0102 28.4682 25.5556V6C28.4682 3.5454 26.4767 1.55556 24.0201 1.55556Z" fill="#0088FF"/>
<path d="M20.962 6H7.50635C5.8174 6 4.44824 7.36802 4.44824 9.05556V11.8333C4.44824 13.5209 5.8174 14.8889 7.50635 14.8889H20.962C22.651 14.8889 24.0201 13.5209 24.0201 11.8333V9.05556C24.0201 7.36802 22.651 6 20.962 6Z" fill="white"/>
<path d="M20.962 16.6667H7.50635C5.8174 16.6667 4.44824 18.0347 4.44824 19.7222V22.5C4.44824 24.1875 5.8174 25.5556 7.50635 25.5556H20.962C22.651 25.5556 24.0201 24.1875 24.0201 22.5V19.7222C24.0201 18.0347 22.651 16.6667 20.962 16.6667Z" fill="white"/>
<path d="M52.3579 26.2222H49.2442V23.6444C48.6708 24.5333 47.9396 25.2148 47.0499 25.6889C46.1603 26.163 45.1421 26.4 43.9954 26.4C42.5918 26.4 41.3166 26.0642 40.17 25.3926C39.0431 24.721 38.1535 23.7728 37.5011 22.5481C36.8487 21.3235 36.5225 19.921 36.5225 18.3408C36.5225 16.7408 36.8487 15.3284 37.5011 14.1037C38.1535 12.879 39.0431 11.9308 40.17 11.2592C41.3166 10.5876 42.5918 10.2519 43.9954 10.2519C45.0825 10.2519 46.0611 10.4889 46.9312 10.963C47.8208 11.4173 48.5423 12.0692 49.0961 12.9185V4.23704H52.3579V26.2222ZM44.5292 23.5556C45.3992 23.5556 46.1799 23.3383 46.872 22.9037C47.5837 22.4692 48.1371 21.8568 48.5325 21.0667C48.9475 20.2765 49.1552 19.3679 49.1552 18.3408C49.1552 17.2938 48.9475 16.3753 48.5325 15.5852C48.1371 14.7951 47.5837 14.1926 46.872 13.7778C46.1799 13.3432 45.3992 13.1259 44.5292 13.1259C43.1651 13.1259 42.0382 13.6 41.1485 14.5481C40.2787 15.4963 39.8438 16.7605 39.8438 18.3408C39.8438 19.9012 40.2787 21.1654 41.1485 22.1333C42.0382 23.0815 43.1651 23.5556 44.5292 23.5556ZM69.9148 18.3408C69.8952 18.637 69.8752 18.9432 69.8556 19.2592H57.9644C58.1223 20.5827 58.6561 21.6395 59.5657 22.4296C60.4749 23.2197 61.6216 23.6148 63.0055 23.6148C64.7056 23.6148 66.0894 23.0124 67.1569 21.8074L68.9362 23.8222C67.5524 25.5408 65.5458 26.4 62.9165 26.4C61.2956 26.4 59.862 26.0543 58.6165 25.363C57.371 24.6716 56.4026 23.7136 55.7105 22.4889C55.0184 21.2642 54.6727 19.8815 54.6727 18.3408C54.6727 16.8 55.0086 15.4173 55.6807 14.1926C56.3528 12.9481 57.2722 11.9803 58.4385 11.2889C59.6053 10.5975 60.9197 10.2519 62.3827 10.2519C63.7866 10.2519 65.0614 10.5876 66.2081 11.2592C67.3549 11.9308 68.2543 12.879 68.9068 14.1037C69.579 15.3284 69.9148 16.7408 69.9148 18.3408ZM62.3827 12.9185C61.1768 12.9185 60.1684 13.3136 59.358 14.1037C58.5475 14.8741 58.0729 15.8914 57.9346 17.1556H66.8607C66.7023 15.8914 66.2179 14.8741 65.4075 14.1037C64.597 13.3136 63.5886 12.9185 62.3827 12.9185ZM80.6504 10.2519C82.0343 10.2519 83.2895 10.5975 84.4162 11.2889C85.5434 11.9605 86.433 12.9086 87.0851 14.1333C87.7377 15.358 88.0637 16.7605 88.0637 18.3408C88.0637 19.921 87.7377 21.3235 87.0851 22.5481C86.433 23.7728 85.5434 24.721 84.4162 25.3926C83.2895 26.0642 82.0343 26.4 80.6504 26.4C79.5433 26.4 78.5447 26.1728 77.655 25.7185C76.7854 25.2642 76.0737 24.6124 75.5199 23.763V31.9704H72.2283V10.4592H75.3718V13.037C75.9252 12.1284 76.6471 11.437 77.5367 10.963C78.4459 10.4889 79.4837 10.2519 80.6504 10.2519ZM80.1167 23.5556C81.0063 23.5556 81.7967 23.3481 82.4889 22.9333C83.2006 22.4988 83.7539 21.8864 84.1494 21.0963C84.5648 20.3062 84.7721 19.3876 84.7721 18.3408C84.7721 17.3136 84.5648 16.4049 84.1494 15.6148C83.7539 14.8247 83.2006 14.2124 82.4889 13.7778C81.7772 13.3432 80.9863 13.1259 80.1167 13.1259C79.227 13.1259 78.4264 13.3432 77.7147 13.7778C77.0225 14.2124 76.4692 14.8247 76.0537 15.6148C75.6583 16.4049 75.4608 17.3136 75.4608 18.3408C75.4608 19.921 75.8958 21.1852 76.7654 22.1333C77.6355 23.0815 78.7524 23.5556 80.1167 23.5556ZM93.6738 4.23704V26.2222H90.3821V4.23704H93.6738ZM103.975 26.4C102.453 26.4 101.088 26.0543 99.8825 25.363C98.6766 24.6716 97.7274 23.7136 97.0357 22.4889C96.3435 21.2642 95.9979 19.8815 95.9979 18.3408C95.9979 16.7803 96.3435 15.3876 97.0357 14.163C97.7274 12.9383 98.6766 11.9803 99.8825 11.2889C101.088 10.5975 102.453 10.2519 103.975 10.2519C105.497 10.2519 106.861 10.5975 108.067 11.2889C109.273 11.9803 110.212 12.9383 110.884 14.163C111.576 15.3876 111.922 16.7803 111.922 18.3408C111.922 19.8815 111.576 21.2642 110.884 22.4889C110.212 23.7136 109.273 24.6716 108.067 25.363C106.861 26.0543 105.497 26.4 103.975 26.4ZM103.975 23.5556C104.864 23.5556 105.655 23.3383 106.347 22.9037C107.059 22.4692 107.613 21.8568 108.008 21.0667C108.423 20.2765 108.631 19.3679 108.631 18.3408C108.631 16.7605 108.196 15.4963 107.326 14.5481C106.456 13.6 105.339 13.1259 103.975 13.1259C103.085 13.1259 102.285 13.3432 101.573 13.7778C100.881 14.1926 100.327 14.7951 99.9123 15.5852C99.5169 16.3753 99.3189 17.2938 99.3189 18.3408C99.3189 19.3679 99.5169 20.2765 99.9123 21.0667C100.327 21.8568 100.891 22.4692 101.603 22.9037C102.314 23.3383 103.105 23.5556 103.975 23.5556ZM115.892 7.67409C115.259 7.67409 114.735 7.4864 114.32 7.11111C113.925 6.71605 113.727 6.22222 113.727 5.62965C113.727 5.03702 113.925 4.5432 114.32 4.14815C114.735 3.75309 115.259 3.55556 115.892 3.55556C116.505 3.55556 117.009 3.74321 117.404 4.11852C117.819 4.49382 118.027 4.96791 118.027 5.54076C118.027 6.15307 117.819 6.66667 117.404 7.08147C117.009 7.47654 116.505 7.67409 115.892 7.67409ZM117.523 10.4592V26.2222H114.231V10.4592H117.523ZM125.748 26.4C124.503 26.4 123.307 26.2321 122.16 25.8963C121.013 25.5408 120.104 25.0963 119.432 24.563L120.558 22.0741C121.231 22.5679 122.041 22.9728 122.99 23.2889C123.939 23.6049 124.898 23.763 125.867 23.763C128.12 23.763 129.247 23.0914 129.247 21.7481C129.247 21.3136 129.089 20.9679 128.773 20.7111C128.476 20.4543 128.091 20.2667 127.616 20.1481C127.162 20.0099 126.509 19.8617 125.659 19.7037C124.453 19.5062 123.455 19.279 122.664 19.0222C121.893 18.7654 121.231 18.3308 120.677 17.7185C120.123 17.0864 119.847 16.2074 119.847 15.0815C119.847 14.1531 120.094 13.3235 120.588 12.5926C121.102 11.8617 121.844 11.2889 122.812 10.8741C123.801 10.4592 124.977 10.2519 126.341 10.2519C127.349 10.2519 128.358 10.3901 129.366 10.6667C130.374 10.9235 131.214 11.279 131.887 11.7333L130.7 14.1926C129.435 13.3432 127.972 12.9185 126.312 12.9185C125.205 12.9185 124.374 13.1062 123.821 13.4815C123.267 13.8568 122.99 14.3408 122.99 14.9333C122.99 15.6049 123.287 16.079 123.88 16.3556C124.493 16.6321 125.432 16.879 126.697 17.0963C127.903 17.3333 128.881 17.5803 129.633 17.837C130.384 18.0938 131.027 18.5284 131.561 19.1408C132.114 19.7333 132.391 20.5728 132.391 21.6592C132.391 23.0815 131.798 24.2272 130.611 25.0963C129.445 25.9654 127.824 26.4 125.748 26.4Z" fill="#0088FF"/>
</svg>
